<?xml version="1.0" encoding="UTF-8"?>
<svg width="411px" height="62px" viewBox="0 0 411 62" version="1.1" xmlns="http://www.w3.org/2000/svg" xmlns:xlink="http://www.w3.org/1999/xlink">
    <!-- Generator: Sketch 53.2 (72643) - https://sketchapp.com -->
    <title>banner-development</title>
    <desc>Created with Sketch.</desc>
    <g id="Page-1" stroke="none" stroke-width="1" fill="none" fill-rule="evenodd">
        <g id="banner-development" transform="translate(-6.000000, 0.000000)">
            <rect id="background" x="0" y="0" width="455" height="64"></rect>
            <path d="M196.048,44.07 C196.048,44.9380043 196.215998,45.6379973 196.552,46.17 C196.888002,46.7020027 197.419996,46.968 198.148,46.968 C198.792003,46.968 199.309998,46.7230025 199.702,46.233 C200.094002,45.7429975 200.29,45.1060039 200.29,44.322 L200.29,36.048 C200.29,35.3759966 200.087002,34.8230022 199.681,34.389 C199.274998,33.9549978 198.764003,33.738 198.148,33.738 C197.335996,33.738 196.783001,33.9899975 196.489,34.494 C196.194999,34.9980025 196.048,35.5859966 196.048,36.258 L196.048,44.07 Z M200.29,51 L200.29,49.068 C200.009999,49.3760015 199.744001,49.6629987 199.492,49.929 C199.239999,50.1950013 198.960002,50.425999 198.652,50.622 C198.343998,50.818001 197.994002,50.9719994 197.602,51.084 C197.209998,51.1960006 196.748003,51.252 196.216,51.252 C194.423991,51.252 193.178003,50.5800067 192.478,49.236 C192.225999,48.7599976 192.044001,48.1720035 191.932,47.472 C191.819999,46.7719965 191.764,45.8340059 191.764,44.658 L191.764,36.552 C191.764,35.0119923 191.806,33.8780036 191.89,33.15 C192.058001,31.749993 192.715994,30.7000035 193.864,30 C194.396003,29.6359982 195.193995,29.454 196.258,29.454 C197.098004,29.454 197.846997,29.6429981 198.505,30.021 C199.163003,30.3990019 199.729998,30.9379965 200.206,31.638 L200.29,31.638 L200.29,21.096 L204.574,21.096 L204.574,51 L200.29,51 Z M226.492,41.97 L218.008,41.97 L218.008,44.868 C218.008,45.5400034 218.196998,46.0579982 218.575,46.422 C218.953002,46.7860018 219.463997,46.968 220.108,46.968 C220.920004,46.968 221.458999,46.7300024 221.725,46.254 C221.991001,45.7779976 222.152,45.3020024 222.208,44.826 L226.492,44.826 C226.492,46.7020094 225.918006,48.2139943 224.77,49.362 C224.209997,49.9500029 223.538004,50.4119983 222.754,50.748 C221.969996,51.0840017 221.088005,51.252 220.108,51.252 C218.763993,51.252 217.623005,50.9720028 216.685,50.412 C215.746995,49.8519972 215.026003,49.1100046 214.522,48.186 C214.213998,47.6259972 214.004001,46.9820036 213.892,46.254 C213.779999,45.5259964 213.724,44.7280043 213.724,43.86 L213.724,36.846 C213.724,35.9779957 213.779999,35.1800036 213.892,34.452 C214.004001,33.7239964 214.213998,33.0800028 214.522,32.52 C215.026003,31.5959954 215.746995,30.8540028 216.685,30.294 C217.623005,29.7339972 218.763993,29.454 220.108,29.454 C221.088005,29.454 221.976996,29.6219983 222.775,29.958 C223.573004,30.2940017 224.251997,30.7559971 224.812,31.344 C225.932006,32.6040063 226.492,34.1859905 226.492,36.09 L226.492,41.97 Z M218.008,38.61 L222.208,38.61 L222.208,36.174 C222.208,35.3619959 222.019002,34.753002 221.641,34.347 C221.262998,33.940998 220.752003,33.738 220.108,33.738 C219.463997,33.738 218.953002,33.940998 218.575,34.347 C218.196998,34.753002 218.008,35.3619959 218.008,36.174 L218.008,38.61 Z M248.2,29.706 L242.656,51 L238.876,51 L233.332,29.706 L237.868,29.706 L240.724,43.314 L240.808,43.314 L243.664,29.706 L248.2,29.706 Z M268.06,41.97 L259.576,41.97 L259.576,44.868 C259.576,45.5400034 259.764998,46.0579982 260.143,46.422 C260.521002,46.7860018 261.031997,46.968 261.676,46.968 C262.488004,46.968 263.026999,46.7300024 263.293,46.254 C263.559001,45.7779976 263.72,45.3020024 263.776,44.826 L268.06,44.826 C268.06,46.7020094 267.486006,48.2139943 266.338,49.362 C265.777997,49.9500029 265.106004,50.4119983 264.322,50.748 C263.537996,51.0840017 262.656005,51.252 261.676,51.252 C260.331993,51.252 259.191005,50.9720028 258.253,50.412 C257.314995,49.8519972 256.594003,49.1100046 256.09,48.186 C255.781998,47.6259972 255.572001,46.9820036 255.46,46.254 C255.347999,45.5259964 255.292,44.7280043 255.292,43.86 L255.292,36.846 C255.292,35.9779957 255.347999,35.1800036 255.46,34.452 C255.572001,33.7239964 255.781998,33.0800028 256.09,32.52 C256.594003,31.5959954 257.314995,30.8540028 258.253,30.294 C259.191005,29.7339972 260.331993,29.454 261.676,29.454 C262.656005,29.454 263.544996,29.6219983 264.343,29.958 C265.141004,30.2940017 265.819997,30.7559971 266.38,31.344 C267.500006,32.6040063 268.06,34.1859905 268.06,36.09 L268.06,41.97 Z M259.576,38.61 L263.776,38.61 L263.776,36.174 C263.776,35.3619959 263.587002,34.753002 263.209,34.347 C262.830998,33.940998 262.320003,33.738 261.676,33.738 C261.031997,33.738 260.521002,33.940998 260.143,34.347 C259.764998,34.753002 259.576,35.3619959 259.576,36.174 L259.576,38.61 Z M276.958,21.096 L281.242,21.096 L281.242,44.994 C281.242,45.8060041 281.388999,46.3589985 281.683,46.653 C281.977001,46.9470015 282.529996,47.1359996 283.342,47.22 L283.342,51.252 C282.361995,51.252 281.480004,51.1750008 280.696,51.021 C279.911996,50.8669992 279.240003,50.5660022 278.68,50.118 C278.119997,49.6979979 277.693001,49.1030039 277.399,48.333 C277.104999,47.5629962 276.958,46.5480063 276.958,45.288 L276.958,21.096 Z M290.644,36.846 C290.644,35.9779957 290.699999,35.1800036 290.812,34.452 C290.924001,33.7239964 291.133998,33.0800028 291.442,32.52 C291.946003,31.5959954 292.666995,30.8540028 293.605,30.294 C294.543005,29.7339972 295.683993,29.454 297.028,29.454 C298.372007,29.454 299.512995,29.7339972 300.451,30.294 C301.389005,30.8540028 302.109997,31.5959954 302.614,32.52 C302.922002,33.0800028 303.131999,33.7239964 303.244,34.452 C303.356001,35.1800036 303.412,35.9779957 303.412,36.846 L303.412,43.86 C303.412,44.7280043 303.356001,45.5259964 303.244,46.254 C303.131999,46.9820036 302.922002,47.6259972 302.614,48.186 C302.109997,49.1100046 301.389005,49.8519972 300.451,50.412 C299.512995,50.9720028 298.372007,51.252 297.028,51.252 C295.683993,51.252 294.543005,50.9720028 293.605,50.412 C292.666995,49.8519972 291.946003,49.1100046 291.442,48.186 C291.133998,47.6259972 290.924001,46.9820036 290.812,46.254 C290.699999,45.5259964 290.644,44.7280043 290.644,43.86 L290.644,36.846 Z M294.928,44.532 C294.928,45.3440041 295.116998,45.952998 295.495,46.359 C295.873002,46.765002 296.383997,46.968 297.028,46.968 C297.672003,46.968 298.182998,46.765002 298.561,46.359 C298.939002,45.952998 299.128,45.3440041 299.128,44.532 L299.128,36.174 C299.128,35.3619959 298.939002,34.753002 298.561,34.347 C298.182998,33.940998 297.672003,33.738 297.028,33.738 C296.383997,33.738 295.873002,33.940998 295.495,34.347 C295.116998,34.753002 294.928,35.3619959 294.928,36.174 L294.928,44.532 Z M312.562,59.61 L312.562,29.706 L316.846,29.706 L316.846,31.638 C317.378003,31.0219969 317.923997,30.5040021 318.484,30.084 C319.044003,29.6639979 319.855995,29.454 320.92,29.454 C322.684009,29.454 323.929996,30.1259933 324.658,31.47 C324.910001,31.9460024 325.091999,32.5339965 325.204,33.234 C325.316001,33.9340035 325.372,34.8719941 325.372,36.048 L325.372,44.154 C325.372,45.7220078 325.33,46.8559965 325.246,47.556 C325.077999,48.956007 324.434006,50.0059965 323.314,50.706 C322.753997,51.0700018 321.942005,51.252 320.878,51.252 C320.037996,51.252 319.289003,51.0630019 318.631,50.685 C317.972997,50.3069981 317.406002,49.7680035 316.93,49.068 L316.846,49.068 L316.846,59.61 L312.562,59.61 Z M321.088,36.636 C321.088,35.7679957 320.920002,35.0680027 320.584,34.536 C320.247998,34.0039973 319.716004,33.738 318.988,33.738 C318.343997,33.738 317.826002,33.9829976 317.434,34.473 C317.041998,34.9630024 316.846,35.5999961 316.846,36.384 L316.846,44.658 C316.846,45.3300034 317.048998,45.8829978 317.455,46.317 C317.861002,46.7510022 318.371997,46.968 318.988,46.968 C319.800004,46.968 320.352999,46.7160025 320.647,46.212 C320.941001,45.7079975 321.088,45.1200034 321.088,44.448 L321.088,36.636 Z M334.9,51 L334.9,29.706 L339.184,29.706 L339.184,31.764 L339.268,31.764 C339.716002,31.0919966 340.254997,30.5390022 340.885,30.105 C341.515003,29.6709978 342.319995,29.454 343.3,29.454 C344.224005,29.454 344.993997,29.6779978 345.61,30.126 C346.226003,30.5740022 346.729998,31.0639973 347.122,31.596 C347.654003,31.0079971 348.241997,30.5040021 348.886,30.084 C349.530003,29.6639979 350.425994,29.454 351.574,29.454 C352.106003,29.454 352.651997,29.5449991 353.212,29.727 C353.772003,29.9090009 354.275998,30.2099979 354.724,30.63 C355.172002,31.0500021 355.535999,31.5889967 355.816,32.247 C356.096001,32.9050033 356.236,33.7099952 356.236,34.662 L356.236,51 L351.952,51 L351.952,36.258 C351.952,35.4739961 351.770002,34.8580022 351.406,34.41 C351.041998,33.9619978 350.524003,33.738 349.852,33.738 C349.039996,33.738 348.480002,33.9899975 348.172,34.494 C347.863998,34.9980025 347.71,35.7259952 347.71,36.678 L347.71,51 L343.426,51 L343.426,36.258 C343.426,35.4739961 343.244002,34.8580022 342.88,34.41 C342.515998,33.9619978 341.998003,33.738 341.326,33.738 C340.513996,33.738 339.954002,33.9899975 339.646,34.494 C339.337998,34.9980025 339.184,35.7259952 339.184,36.678 L339.184,51 L334.9,51 Z M378.154,41.97 L369.67,41.97 L369.67,44.868 C369.67,45.5400034 369.858998,46.0579982 370.237,46.422 C370.615002,46.7860018 371.125997,46.968 371.77,46.968 C372.582004,46.968 373.120999,46.7300024 373.387,46.254 C373.653001,45.7779976 373.814,45.3020024 373.87,44.826 L378.154,44.826 C378.154,46.7020094 377.580006,48.2139943 376.432,49.362 C375.871997,49.9500029 375.200004,50.4119983 374.416,50.748 C373.631996,51.0840017 372.750005,51.252 371.77,51.252 C370.425993,51.252 369.285005,50.9720028 368.347,50.412 C367.408995,49.8519972 366.688003,49.1100046 366.184,48.186 C365.875998,47.6259972 365.666001,46.9820036 365.554,46.254 C365.441999,45.5259964 365.386,44.7280043 365.386,43.86 L365.386,36.846 C365.386,35.9779957 365.441999,35.1800036 365.554,34.452 C365.666001,33.7239964 365.875998,33.0800028 366.184,32.52 C366.688003,31.5959954 367.408995,30.8540028 368.347,30.294 C369.285005,29.7339972 370.425993,29.454 371.77,29.454 C372.750005,29.454 373.638996,29.6219983 374.437,29.958 C375.235004,30.2940017 375.913997,30.7559971 376.474,31.344 C377.594006,32.6040063 378.154,34.1859905 378.154,36.09 L378.154,41.97 Z M369.67,38.61 L373.87,38.61 L373.87,36.174 C373.87,35.3619959 373.681002,34.753002 373.303,34.347 C372.924998,33.940998 372.414003,33.738 371.77,33.738 C371.125997,33.738 370.615002,33.940998 370.237,34.347 C369.858998,34.753002 369.67,35.3619959 369.67,36.174 L369.67,38.61 Z M387.304,51 L387.304,29.706 L391.588,29.706 L391.588,31.764 L391.672,31.764 C392.120002,31.0919966 392.658997,30.5390022 393.289,30.105 C393.919003,29.6709978 394.723995,29.454 395.704,29.454 C396.236003,29.454 396.767997,29.5449991 397.3,29.727 C397.832003,29.9090009 398.307998,30.2099979 398.728,30.63 C399.148002,31.0500021 399.483999,31.5889967 399.736,32.247 C399.988001,32.9050033 400.114,33.7099952 400.114,34.662 L400.114,51 L395.83,51 L395.83,36.258 C395.83,35.4739961 395.648002,34.8580022 395.284,34.41 C394.919998,33.9619978 394.402003,33.738 393.73,33.738 C392.917996,33.738 392.358002,33.9899975 392.05,34.494 C391.741998,34.9980025 391.588,35.7259952 391.588,36.678 L391.588,51 L387.304,51 Z M409.642,29.706 L409.642,23.238 L413.926,23.238 L413.926,29.706 L416.572,29.706 L416.572,33.066 L413.926,33.066 L413.926,44.868 C413.926,45.3720025 413.975,45.7639986 414.073,46.044 C414.171,46.3240014 414.331999,46.5339993 414.556,46.674 C414.780001,46.8140007 415.052998,46.8979999 415.375,46.926 C415.697002,46.9540001 416.095998,46.968 416.572,46.968 L416.572,51 L414.808,51 C413.827995,51 413.009003,50.8460015 412.351,50.538 C411.692997,50.2299985 411.168002,49.8380024 410.776,49.362 C410.383998,48.8859976 410.097001,48.347003 409.915,47.745 C409.732999,47.142997 409.642,46.5620028 409.642,46.002 L409.642,33.066 L407.5,33.066 L407.5,29.706 L409.642,29.706 Z" id="development" fill="#D5EAF4" fill-rule="nonzero"></path>
            <path d="M84.968,30.224 C85.0320003,30.416001 85.064,30.5599995 85.064,30.656 C85.064,30.9760016 84.8720019,31.2159992 84.488,31.376 L73.256,35.984 L73.256,49.136 C73.256,49.7120029 72.9680029,50 72.392,50 L68.504,50 C68.2159986,50 67.9920008,49.9200008 67.832,49.76 C67.6719992,49.5999992 67.592,49.3920013 67.592,49.136 L67.592,29.216 C67.592,28.7039974 67.8319976,28.352001 68.312,28.16 L72.248,26.768 C72.440001,26.7039997 72.5679997,26.672 72.632,26.672 C72.824001,26.672 72.9759994,26.7439993 73.088,26.888 C73.2000006,27.0320007 73.256,27.2319987 73.256,27.488 L73.256,30.608 L82.52,26.72 C82.712001,26.6559997 82.8559995,26.624 82.952,26.624 C83.2720016,26.624 83.527999,26.8159981 83.72,27.2 L84.968,30.224 Z M98.744,50.576 C96.343988,50.576 94.2720087,50.0400054 92.528,48.968 C90.7839913,47.8959946 89.4480046,46.4320093 88.52,44.576 C87.5919954,42.7199907 87.128,40.6400115 87.128,38.336 C87.128,36.0959888 87.6399949,34.0640091 88.664,32.24 C89.6880051,30.4159909 91.103991,28.9840052 92.912,27.944 C94.720009,26.9039948 96.7439888,26.384 98.984,26.384 C100.456007,26.384 101.807994,26.6479974 103.04,27.176 C104.272006,27.7040026 105.191997,28.4799949 105.8,29.504 L105.8,29.216 C105.8,28.7039974 106.039998,28.352001 106.52,28.16 L110.456,26.768 L110.84,26.672 C111.256002,26.672 111.464,26.9279974 111.464,27.44 L111.464,49.136 C111.464,49.3920013 111.384001,49.5999992 111.224,49.76 C111.063999,49.9200008 110.840001,50 110.552,50 L106.664,50 C106.407999,50 106.200001,49.9200008 106.04,49.76 C105.879999,49.5999992 105.8,49.3920013 105.8,49.136 L105.8,47.888 C105.223997,48.6240037 104.288006,49.2559974 102.992,49.784 C101.695994,50.3120026 100.280008,50.576 98.744,50.576 Z M99.416,45.248 C101.304009,45.248 102.847994,44.6400061 104.048,43.424 C105.248006,42.2079939 105.848,40.496011 105.848,38.288 C105.848,36.2399898 105.248006,34.616006 104.048,33.416 C102.847994,32.215994 101.304009,31.616 99.416,31.616 C97.5279906,31.616 95.9760061,32.215994 94.76,33.416 C93.5439939,34.616006 92.936,36.2399898 92.936,38.288 C92.936,40.496011 93.535994,42.2079939 94.736,43.424 C95.936006,44.6400061 97.4959904,45.248 99.416,45.248 Z M127.496,50.576 C125.127988,50.576 123.080009,50.0320054 121.352,48.944 C119.623991,47.8559946 118.320004,46.3920092 117.44,44.552 C116.559996,42.7119908 116.12,40.688011 116.12,38.48 C116.12,36.079988 116.623995,33.9600092 117.632,32.12 C118.640005,30.2799908 120.007991,28.864005 121.736,27.872 C123.464009,26.879995 125.399989,26.384 127.544,26.384 C129.144008,26.384 130.591994,26.6719971 131.888,27.248 C133.184006,27.8240029 134.151997,28.5599955 134.792,29.456 L134.792,18.704 C134.792,18.2559978 135.031998,17.9200011 135.512,17.696 L139.448,16.208 C139.544,16.1759998 139.671999,16.16 139.832,16.16 C140.248002,16.16 140.456,16.4159974 140.456,16.928 L140.456,49.136 C140.456,49.7120029 140.168003,50 139.592,50 L135.704,50 C135.415999,50 135.192001,49.9200008 135.032,49.76 C134.871999,49.5999992 134.792,49.3920013 134.792,49.136 L134.792,47.552 C134.119997,48.4160043 133.136006,49.1359971 131.84,49.712 C130.543994,50.2880029 129.096008,50.576 127.496,50.576 Z M128.36,45.344 C130.28001,45.344 131.839994,44.744006 133.04,43.544 C134.240006,42.343994 134.84,40.6560109 134.84,38.48 C134.84,36.271989 134.248006,34.5760059 133.064,33.392 C131.879994,32.2079941 130.31201,31.616 128.36,31.616 C126.471991,31.616 124.928006,32.215994 123.728,33.416 C122.527994,34.616006 121.928,36.3039891 121.928,38.48 C121.928,40.6240107 122.527994,42.3039939 123.728,43.52 C124.928006,44.7360061 126.471991,45.344 128.36,45.344 Z M146.696,25.328 C146.6,25.3600002 146.488001,25.376 146.36,25.376 C146.135999,25.376 145.960001,25.3040007 145.832,25.16 C145.703999,25.0159993 145.64,24.8320011 145.64,24.608 L145.64,20.336 C145.64,19.8559976 145.879998,19.520001 146.36,19.328 L150.728,17.792 C150.920001,17.7279997 151.048,17.696 151.112,17.696 C151.304001,17.696 151.455999,17.7679993 151.568,17.912 C151.680001,18.0560007 151.736,18.2559987 151.736,18.512 L151.736,22.88 C151.736,23.3920026 151.496002,23.7279992 151.016,23.888 L146.696,25.328 Z M146.744,50 C146.487999,50 146.280001,49.9200008 146.12,49.76 C145.959999,49.5999992 145.88,49.3920013 145.88,49.136 L145.88,29.12 C145.88,28.6399976 146.119998,28.304001 146.6,28.112 L150.536,26.768 C150.728001,26.7039997 150.84,26.672 150.872,26.672 C151.096001,26.672 151.263999,26.7439993 151.376,26.888 C151.488001,27.0320007 151.544,27.2319987 151.544,27.488 L151.544,49.136 C151.544,49.3920013 151.464001,49.5999992 151.304,49.76 C151.143999,49.9200008 150.920001,50 150.632,50 L146.744,50 Z M177.176,48.944 C177.304001,49.1040008 177.368,49.279999 177.368,49.472 C177.368,49.6320008 177.296001,49.7599995 177.152,49.856 C177.007999,49.9520005 176.824001,50 176.6,50 L172.136,50 C171.687998,50 171.320001,49.8080019 171.032,49.424 L166.424,42.896 L161.816,49.424 C161.527999,49.8080019 161.160002,50 160.712,50 L156.248,50 C156.023999,50 155.840001,49.9520005 155.696,49.856 C155.551999,49.7599995 155.48,49.6320008 155.48,49.472 C155.48,49.279999 155.543999,49.1040008 155.672,48.944 L163.16,38.288 L155.912,28.016 C155.783999,27.8559992 155.72,27.680001 155.72,27.488 C155.72,27.3279992 155.791999,27.2000005 155.936,27.104 C156.080001,27.0079995 156.263999,26.96 156.488,26.96 L160.952,26.96 C161.400002,26.96 161.767999,27.1519981 162.056,27.536 L166.424,33.728 L170.792,27.536 C171.080001,27.1519981 171.447998,26.96 171.896,26.96 L176.36,26.96 C176.584001,26.96 176.767999,27.0079995 176.912,27.104 C177.056001,27.2000005 177.128,27.3279992 177.128,27.488 C177.128,27.680001 177.064001,27.8559992 176.936,28.016 L169.688,38.288 L177.176,48.944 Z" id="radix" fill="#D5EAF4"></path>
            <path d="M70.82,19.24 C69.8733286,19.24 69.0233371,19.0233355 68.27,18.59 C67.5166629,18.1566645 66.9300021,17.5566705 66.51,16.79 C66.0899979,16.0233295 65.88,15.1600048 65.88,14.2 C65.88,13.2399952 66.0899979,12.3766705 66.51,11.61 C66.9300021,10.8433295 67.5166629,10.2433355 68.27,9.81 C69.0233371,9.3766645 69.8733286,9.16 70.82,9.16 C71.7666714,9.16 72.6133296,9.3766645 73.36,9.81 C74.1066704,10.2433355 74.6899979,10.8433295 75.11,11.61 C75.5300021,12.3766705 75.74,13.2399952 75.74,14.2 C75.74,15.1600048 75.5300021,16.0233295 75.11,16.79 C74.6899979,17.5566705 74.1066704,18.1566645 73.36,18.59 C72.6133296,19.0233355 71.7666714,19.24 70.82,19.24 Z M70.82,17.56 C71.7800048,17.56 72.5466638,17.2400032 73.12,16.6 C73.6933362,15.9599968 73.98,15.1600048 73.98,14.2 C73.98,13.2399952 73.6933362,12.4400032 73.12,11.8 C72.5466638,11.1599968 71.7800048,10.84 70.82,10.84 C69.8466618,10.84 69.0733362,11.1599968 68.5,11.8 C67.9266638,12.4400032 67.64,13.2399952 67.64,14.2 C67.64,15.1600048 67.9266638,15.9599968 68.5,16.6 C69.0733362,17.2400032 69.8466618,17.56 70.82,17.56 Z M78.12,19 C78.0266662,19 77.9533336,18.9733336 77.9,18.92 C77.8466664,18.8666664 77.82,18.7933338 77.82,18.7 L77.82,10.08 C77.82,9.9066658 77.8999992,9.7933336 78.06,9.74 L79.2,9.32 C79.2266668,9.3066666 79.2666664,9.3 79.32,9.3 C79.4666674,9.3 79.54,9.3866658 79.54,9.56 L79.54,10.58 C79.8600016,10.113331 80.2599976,9.7600012 80.74,9.52 C81.2200024,9.2799988 81.7333306,9.16 82.28,9.16 C82.8400028,9.16 83.3599976,9.2966653 83.84,9.57 C84.3200024,9.8433347 84.7066652,10.2533306 85,10.8 C85.3733352,10.2133304 85.8299973,9.7933346 86.37,9.54 C86.9100027,9.2866654 87.4733304,9.16 88.06,9.16 C89.1533388,9.16 90.0066636,9.4999966 90.62,10.18 C91.2333364,10.8600034 91.54,11.8866598 91.54,13.26 L91.54,18.7 C91.54,18.7933338 91.5133336,18.8666664 91.46,18.92 C91.4066664,18.9733336 91.3333338,19 91.24,19 L90.12,19 C90.0266662,19 89.9533336,18.9733336 89.9,18.92 C89.8466664,18.8666664 89.82,18.7933338 89.82,18.7 L89.82,13.48 C89.82,12.6399958 89.6333352,11.9933356 89.26,11.54 C88.8866648,11.0866644 88.3600034,10.86 87.68,10.86 C86.9999966,10.86 86.4733352,11.0866644 86.1,11.54 C85.7266648,11.9933356 85.54,12.6399958 85.54,13.48 L85.54,18.7 C85.54,18.7933338 85.5133336,18.8666664 85.46,18.92 C85.4066664,18.9733336 85.3333338,19 85.24,19 L84.12,19 C84.0266662,19 83.9533336,18.9733336 83.9,18.92 C83.8466664,18.8666664 83.82,18.7933338 83.82,18.7 L83.82,13.48 C83.82,12.6399958 83.6333352,11.9933356 83.26,11.54 C82.8866648,11.0866644 82.3600034,10.86 81.68,10.86 C80.9999966,10.86 80.4733352,11.0866644 80.1,11.54 C79.7266648,11.9933356 79.54,12.6399958 79.54,13.48 L79.54,18.7 C79.54,18.7933338 79.5133336,18.8666664 79.46,18.92 C79.4066664,18.9733336 79.3333338,19 79.24,19 L78.12,19 Z M94.08,19 C93.9866662,19 93.9133336,18.9733336 93.86,18.92 C93.8066664,18.8666664 93.78,18.7933338 93.78,18.7 L93.78,10.08 C93.78,9.9066658 93.8599992,9.7933336 94.02,9.74 L95.16,9.32 C95.1866668,9.3066666 95.2266664,9.3 95.28,9.3 C95.4266674,9.3 95.5,9.3866658 95.5,9.56 L95.5,10.58 C95.8466684,10.0733308 96.2766641,9.7100011 96.79,9.49 C97.3033359,9.2699989 97.8466638,9.16 98.42,9.16 C99.153337,9.16 99.8133304,9.3233317 100.4,9.65 C100.98667,9.9766683 101.449998,10.4633301 101.79,11.11 C102.130002,11.7566699 102.3,12.5399954 102.3,13.46 L102.3,18.7 C102.3,18.7933338 102.273334,18.8666664 102.22,18.92 C102.166666,18.9733336 102.093334,19 102,19 L100.88,19 C100.786666,19 100.713334,18.9733336 100.66,18.92 C100.606666,18.8666664 100.58,18.7933338 100.58,18.7 L100.58,13.52 C100.58,12.6799958 100.356669,12.026669 99.91,11.56 C99.4633311,11.093331 98.8600038,10.86 98.1,10.86 C97.3266628,10.86 96.7000024,11.0966643 96.22,11.57 C95.7399976,12.0433357 95.5,12.6933292 95.5,13.52 L95.5,18.7 C95.5,18.7933338 95.4733336,18.8666664 95.42,18.92 C95.3666664,18.9733336 95.2933338,19 95.2,19 L94.08,19 Z M104.88,8.3 C104.853333,8.3133334 104.813334,8.32 104.76,8.32 C104.613333,8.32 104.54,8.2333342 104.54,8.06 L104.54,6.64 C104.54,6.4666658 104.619999,6.3533336 104.78,6.3 L106.04,5.82 C106.066667,5.8066666 106.106666,5.8 106.16,5.8 C106.306667,5.8 106.38,5.8866658 106.38,6.06 L106.38,7.54 C106.38,7.7000008 106.300001,7.813333 106.14,7.88 L104.88,8.3 Z M104.9,19 C104.806666,19 104.733334,18.9733336 104.68,18.92 C104.626666,18.8666664 104.6,18.7933338 104.6,18.7 L104.6,10.08 C104.6,9.9066658 104.679999,9.7933336 104.84,9.74 L105.98,9.32 C106.006667,9.3066666 106.046666,9.3 106.1,9.3 C106.246667,9.3 106.32,9.3866658 106.32,9.56 L106.32,18.7 C106.32,18.7933338 106.293334,18.8666664 106.24,18.92 C106.186666,18.9733336 106.113334,19 106.02,19 L104.9,19 Z M113.26,19.24 C112.273328,19.24 111.420004,19.0133356 110.7,18.56 C109.979996,18.1066644 109.426669,17.4933372 109.04,16.72 C108.653331,15.9466628 108.46,15.1000046 108.46,14.18 C108.46,13.1933284 108.683331,12.3166705 109.13,11.55 C109.576669,10.7833295 110.17333,10.1933354 110.92,9.78 C111.66667,9.3666646 112.479996,9.16 113.36,9.16 C114.02667,9.16 114.64333,9.2799988 115.21,9.52 C115.776669,9.7600012 116.213332,10.0866646 116.52,10.5 L116.52,10.08 C116.52,9.9066658 116.599999,9.7933336 116.76,9.74 L117.9,9.32 C117.98,9.2933332 118.026667,9.28 118.04,9.28 C118.173334,9.28 118.24,9.3666658 118.24,9.54 L118.24,18.7 C118.24,18.7933338 118.213334,18.8666664 118.16,18.92 C118.106666,18.9733336 118.033334,19 117.94,19 L116.82,19 C116.726666,19 116.653334,18.9733336 116.6,18.92 C116.546666,18.8666664 116.52,18.7933338 116.52,18.7 L116.52,17.92 C116.226665,18.2800018 115.77667,18.5899987 115.17,18.85 C114.56333,19.1100013 113.92667,19.24 113.26,19.24 Z M113.38,17.54 C114.313338,17.54 115.07333,17.2466696 115.66,16.66 C116.24667,16.0733304 116.54,15.246672 116.54,14.18 C116.54,13.113328 116.24667,12.2900029 115.66,11.71 C115.07333,11.1299971 114.313338,10.84 113.38,10.84 C112.486662,10.84 111.73667,11.1333304 111.13,11.72 C110.52333,12.3066696 110.22,13.1266614 110.22,14.18 C110.22,15.2333386 110.52333,16.0566637 111.13,16.65 C111.73667,17.2433363 112.486662,17.54 113.38,17.54 Z" id="omnia" fill="#D5EAF4"></path>
            <g id="Logo" transform="translate(8.000000, 3.000000)" stroke="#D5EAF4" stroke-linecap="round" stroke-linejoin="round" stroke-width="3">
                <path d="M16.6967678,21.0982243 C16.4429645,17.2306673 17.7173689,11.8543764 20.3914142,7.63104955 C24.0319211,1.88131521 29.8742606,-1.5 37.9032258,-1.5 L39.4032258,-1.5 L39.4032258,0 C39.4032258,15.5498862 30.7851655,23.1267338 18.119199,22.4981563 L16.7842891,22.4319083 L16.6967678,21.0982243 Z" id="leaf"></path>
                <path d="M28.8064516,9 C23.7526882,13 20.2150538,17 18.1935484,21 C14.1505376,27 17.688172,39 28.8064516,57" id="stem"></path>
                <path d="M21.2258065,42 C29.8172043,48 38.4086022,50.125 47,48.375" id="root-1"></path>
                <path d="M24.2580645,49.5 C18.1935484,54.5 12.1290323,56 6.06451613,54" id="root-2"></path>
                <path d="M18.1935484,36 C16.6774194,42 12.1290323,48 0,49.5" id="root-3"></path>
            </g>
        </g>
    </g>
</svg>