<?xml version="1.0" encoding="UTF-8"?>
<svg width="455px" height="64px" viewBox="0 0 455 64" version="1.1" xmlns="http://www.w3.org/2000/svg" xmlns:xlink="http://www.w3.org/1999/xlink">
    <!-- Generator: Sketch 46.2 (44496) - http://www.bohemiancoding.com/sketch -->
    <title>banner</title>
    <desc>Created with Sketch.</desc>
    <defs></defs>
    <g id="Page-1" stroke="none" stroke-width="1" fill="none" fill-rule="evenodd">
        <g id="banner" transform="translate(0.000000, -1.000000)">
            <path d="M84.968,31.224 C85.0320003,31.416001 85.064,31.5599995 85.064,31.656 C85.064,31.9760016 84.8720019,32.2159992 84.488,32.376 L73.256,36.984 L73.256,50.136 C73.256,50.7120029 72.9680029,51 72.392,51 L68.504,51 C68.2159986,51 67.9920008,50.9200008 67.832,50.76 C67.6719992,50.5999992 67.592,50.3920013 67.592,50.136 L67.592,30.216 C67.592,29.7039974 67.8319976,29.352001 68.312,29.16 L72.248,27.768 C72.440001,27.7039997 72.5679997,27.672 72.632,27.672 C72.824001,27.672 72.9759994,27.7439993 73.088,27.888 C73.2000006,28.0320007 73.256,28.2319987 73.256,28.488 L73.256,31.608 L82.52,27.72 C82.712001,27.6559997 82.8559995,27.624 82.952,27.624 C83.2720016,27.624 83.527999,27.8159981 83.72,28.2 L84.968,31.224 Z M98.744,51.576 C96.343988,51.576 94.2720087,51.0400054 92.528,49.968 C90.7839913,48.8959946 89.4480046,47.4320093 88.52,45.576 C87.5919954,43.7199907 87.128,41.6400115 87.128,39.336 C87.128,37.0959888 87.6399949,35.0640091 88.664,33.24 C89.6880051,31.4159909 91.103991,29.9840052 92.912,28.944 C94.720009,27.9039948 96.7439888,27.384 98.984,27.384 C100.456007,27.384 101.807994,27.6479974 103.04,28.176 C104.272006,28.7040026 105.191997,29.4799949 105.8,30.504 L105.8,30.216 C105.8,29.7039974 106.039998,29.352001 106.52,29.16 L110.456,27.768 L110.84,27.672 C111.256002,27.672 111.464,27.9279974 111.464,28.44 L111.464,50.136 C111.464,50.3920013 111.384001,50.5999992 111.224,50.76 C111.063999,50.9200008 110.840001,51 110.552,51 L106.664,51 C106.407999,51 106.200001,50.9200008 106.04,50.76 C105.879999,50.5999992 105.8,50.3920013 105.8,50.136 L105.8,48.888 C105.223997,49.6240037 104.288006,50.2559974 102.992,50.784 C101.695994,51.3120026 100.280008,51.576 98.744,51.576 Z M99.416,46.248 C101.304009,46.248 102.847994,45.6400061 104.048,44.424 C105.248006,43.2079939 105.848,41.496011 105.848,39.288 C105.848,37.2399898 105.248006,35.616006 104.048,34.416 C102.847994,33.215994 101.304009,32.616 99.416,32.616 C97.5279906,32.616 95.9760061,33.215994 94.76,34.416 C93.5439939,35.616006 92.936,37.2399898 92.936,39.288 C92.936,41.496011 93.535994,43.2079939 94.736,44.424 C95.936006,45.6400061 97.4959904,46.248 99.416,46.248 Z M127.496,51.576 C125.127988,51.576 123.080009,51.0320054 121.352,49.944 C119.623991,48.8559946 118.320004,47.3920092 117.44,45.552 C116.559996,43.7119908 116.12,41.688011 116.12,39.48 C116.12,37.079988 116.623995,34.9600092 117.632,33.12 C118.640005,31.2799908 120.007991,29.864005 121.736,28.872 C123.464009,27.879995 125.399989,27.384 127.544,27.384 C129.144008,27.384 130.591994,27.6719971 131.888,28.248 C133.184006,28.8240029 134.151997,29.5599955 134.792,30.456 L134.792,19.704 C134.792,19.2559978 135.031998,18.9200011 135.512,18.696 L139.448,17.208 C139.544,17.1759998 139.671999,17.16 139.832,17.16 C140.248002,17.16 140.456,17.4159974 140.456,17.928 L140.456,50.136 C140.456,50.7120029 140.168003,51 139.592,51 L135.704,51 C135.415999,51 135.192001,50.9200008 135.032,50.76 C134.871999,50.5999992 134.792,50.3920013 134.792,50.136 L134.792,48.552 C134.119997,49.4160043 133.136006,50.1359971 131.84,50.712 C130.543994,51.2880029 129.096008,51.576 127.496,51.576 Z M128.36,46.344 C130.28001,46.344 131.839994,45.744006 133.04,44.544 C134.240006,43.343994 134.84,41.6560109 134.84,39.48 C134.84,37.271989 134.248006,35.5760059 133.064,34.392 C131.879994,33.2079941 130.31201,32.616 128.36,32.616 C126.471991,32.616 124.928006,33.215994 123.728,34.416 C122.527994,35.616006 121.928,37.3039891 121.928,39.48 C121.928,41.6240107 122.527994,43.3039939 123.728,44.52 C124.928006,45.7360061 126.471991,46.344 128.36,46.344 Z M146.696,26.328 C146.6,26.3600002 146.488001,26.376 146.36,26.376 C146.135999,26.376 145.960001,26.3040007 145.832,26.16 C145.703999,26.0159993 145.64,25.8320011 145.64,25.608 L145.64,21.336 C145.64,20.8559976 145.879998,20.520001 146.36,20.328 L150.728,18.792 C150.920001,18.7279997 151.048,18.696 151.112,18.696 C151.304001,18.696 151.455999,18.7679993 151.568,18.912 C151.680001,19.0560007 151.736,19.2559987 151.736,19.512 L151.736,23.88 C151.736,24.3920026 151.496002,24.7279992 151.016,24.888 L146.696,26.328 Z M146.744,51 C146.487999,51 146.280001,50.9200008 146.12,50.76 C145.959999,50.5999992 145.88,50.3920013 145.88,50.136 L145.88,30.12 C145.88,29.6399976 146.119998,29.304001 146.6,29.112 L150.536,27.768 C150.728001,27.7039997 150.84,27.672 150.872,27.672 C151.096001,27.672 151.263999,27.7439993 151.376,27.888 C151.488001,28.0320007 151.544,28.2319987 151.544,28.488 L151.544,50.136 C151.544,50.3920013 151.464001,50.5999992 151.304,50.76 C151.143999,50.9200008 150.920001,51 150.632,51 L146.744,51 Z M177.176,49.944 C177.304001,50.1040008 177.368,50.279999 177.368,50.472 C177.368,50.6320008 177.296001,50.7599995 177.152,50.856 C177.007999,50.9520005 176.824001,51 176.6,51 L172.136,51 C171.687998,51 171.320001,50.8080019 171.032,50.424 L166.424,43.896 L161.816,50.424 C161.527999,50.8080019 161.160002,51 160.712,51 L156.248,51 C156.023999,51 155.840001,50.9520005 155.696,50.856 C155.551999,50.7599995 155.48,50.6320008 155.48,50.472 C155.48,50.279999 155.543999,50.1040008 155.672,49.944 L163.16,39.288 L155.912,29.016 C155.783999,28.8559992 155.72,28.680001 155.72,28.488 C155.72,28.3279992 155.791999,28.2000005 155.936,28.104 C156.080001,28.0079995 156.263999,27.96 156.488,27.96 L160.952,27.96 C161.400002,27.96 161.767999,28.1519981 162.056,28.536 L166.424,34.728 L170.792,28.536 C171.080001,28.1519981 171.447998,27.96 171.896,27.96 L176.36,27.96 C176.584001,27.96 176.767999,28.0079995 176.912,28.104 C177.056001,28.2000005 177.128,28.3279992 177.128,28.488 C177.128,28.680001 177.064001,28.8559992 176.936,29.016 L169.688,39.288 L177.176,49.944 Z" id="radix" fill="#FCFCFD"></path>
            <path d="M199.736,51 C199.415998,51 199.208,50.8400016 199.112,50.52 L192.296,28.584 L192.248,28.392 C192.248,28.1039986 192.407998,27.96 192.728,27.96 L194.648,27.96 C194.968002,27.96 195.176,28.1039986 195.272,28.392 L200.696,46.488 L206.264,28.44 C206.36,28.1199984 206.567998,27.96 206.888,27.96 L208.856,27.96 C209.176002,27.96 209.384,28.1199984 209.48,28.44 L215.048,46.488 L220.52,28.392 C220.584,28.1039986 220.791998,27.96 221.144,27.96 L222.968,27.96 C223.160001,27.96 223.296,28.0159994 223.376,28.128 C223.456,28.2400006 223.464,28.391999 223.4,28.584 L216.632,50.52 C216.536,50.8400016 216.328002,51 216.008,51 L214.136,51 C213.815998,51 213.608,50.8400016 213.512,50.52 L207.896,32.472 L202.184,50.52 C202.152,50.6480006 202.080001,50.7599995 201.968,50.856 C201.855999,50.9520005 201.720001,51 201.56,51 L199.736,51 Z M237.848,27.384 C239.92801,27.384 241.767992,27.887995 243.368,28.896 C244.968008,29.904005 246.199996,31.2399917 247.064,32.904 C247.928004,34.5680083 248.36,36.3759902 248.36,38.328 L248.36,39.624 C248.36,39.9760018 248.168002,40.152 247.784,40.152 L229.208,40.152 C229.304,41.6880077 229.719996,43.1039935 230.456,44.4 C231.192004,45.6960065 232.223993,46.7359961 233.552,47.52 C234.880007,48.3040039 236.455991,48.696 238.28,48.696 C239.656007,48.696 241.007993,48.4320026 242.336,47.904 C243.664007,47.3759974 244.871995,46.6320048 245.96,45.672 C246.152001,45.5439994 246.28,45.48 246.344,45.48 C246.504001,45.48 246.632,45.5599992 246.728,45.72 L247.736,47.112 C247.832,47.2080005 247.88,47.3359992 247.88,47.496 C247.88,47.6240006 247.816001,47.7519994 247.688,47.88 C246.471994,49.0640059 245.032008,49.9759968 243.368,50.616 C241.703992,51.2560032 239.976009,51.576 238.184,51.576 C235.751988,51.576 233.632009,51.0640051 231.824,50.04 C230.015991,49.0159949 228.632005,47.600009 227.672,45.792 C226.711995,43.983991 226.232,41.9280115 226.232,39.624 C226.232,37.1599877 226.751995,35.0000093 227.792,33.144 C228.832005,31.2879907 230.239991,29.864005 232.016,28.872 C233.792009,27.879995 235.735989,27.384 237.848,27.384 Z M245.288,37.416 C245.127999,35.3359896 244.392007,33.6240067 243.08,32.28 C241.767993,30.9359933 240.008011,30.264 237.8,30.264 C235.495988,30.264 233.616007,30.9279934 232.16,32.256 C230.703993,33.5840066 229.784002,35.3039894 229.4,37.416 L245.288,37.416 Z M265.16,51.576 C263.303991,51.576 261.608008,51.1600042 260.072,50.328 C258.535992,49.4959958 257.416004,48.4560062 256.712,47.208 L256.712,50.424 C256.712,50.5840008 256.656001,50.7199994 256.544,50.832 C256.431999,50.9440006 256.296001,51 256.136,51 L254.312,51 C253.959998,51 253.784,50.8080019 253.784,50.424 L253.784,18.36 C253.784,18.0719986 253.927999,17.8640006 254.216,17.736 L256.088,17.064 C256.152,17.0319998 256.232,17.016 256.328,17.016 C256.584001,17.016 256.712,17.1759984 256.712,17.496 L256.712,31.8 C257.448004,30.5199936 258.575992,29.4640042 260.096,28.632 C261.616008,27.7999958 263.303991,27.384 265.16,27.384 C267.20801,27.384 269.079992,27.8639952 270.776,28.824 C272.472008,29.7840048 273.823995,31.1759909 274.832,33 C275.840005,34.8240091 276.344,36.9679877 276.344,39.432 C276.344,41.8000118 275.840005,43.9039908 274.832,45.744 C273.823995,47.5840092 272.464009,49.0159949 270.752,50.04 C269.039991,51.0640051 267.17601,51.576 265.16,51.576 Z M265.016,48.648 C266.456007,48.648 267.815994,48.2880036 269.096,47.568 C270.376006,46.8479964 271.407996,45.792007 272.192,44.4 C272.976004,43.007993 273.368,41.3520096 273.368,39.432 C273.368,37.5119904 272.976004,35.856007 272.192,34.464 C271.407996,33.071993 270.376006,32.0240035 269.096,31.32 C267.815994,30.6159965 266.456007,30.264 265.016,30.264 C263.511992,30.264 262.128006,30.6079966 260.864,31.296 C259.599994,31.9840034 258.584004,33.0159931 257.816,34.392 C257.047996,35.7680069 256.664,37.4479901 256.664,39.432 C256.664,42.5040154 257.463992,44.8079923 259.064,46.344 C260.664008,47.8800077 262.647988,48.648 265.016,48.648 Z M303.128,51.576 C300.887989,51.576 298.864009,51.0560052 297.056,50.016 C295.247991,48.9759948 293.824005,47.5280093 292.784,45.672 C291.743995,43.8159907 291.224,41.7520114 291.224,39.48 C291.224,37.1759885 291.735995,35.1040092 292.76,33.264 C293.784005,31.4239908 295.199991,29.9840052 297.008,28.944 C298.816009,27.9039948 300.855989,27.384 303.128,27.384 C306.040015,27.384 308.50399,28.1519923 310.52,29.688 C310.776001,29.880001 310.824001,30.1359984 310.664,30.456 L309.752,31.992 C309.527999,32.3120016 309.288001,32.3600011 309.032,32.136 C308.231996,31.527997 307.384004,31.0640016 306.488,30.744 C305.591996,30.4239984 304.552006,30.264 303.368,30.264 C301.511991,30.264 299.888007,30.6719959 298.496,31.488 C297.103993,32.3040041 296.040004,33.407993 295.304,34.8 C294.567996,36.192007 294.2,37.7519914 294.2,39.48 C294.2,41.2080086 294.575996,42.775993 295.328,44.184 C296.080004,45.592007 297.151993,46.695996 298.544,47.496 C299.936007,48.296004 301.543991,48.696 303.368,48.696 C305.608011,48.696 307.527992,48.0400066 309.128,46.728 C309.192,46.6639997 309.303999,46.632 309.464,46.632 C309.688001,46.632 309.832,46.7119992 309.896,46.872 L310.712,48.36 C310.872001,48.6480014 310.904,48.8559994 310.808,48.984 C309.975996,49.6880035 308.888007,50.2959974 307.544,50.808 C306.199993,51.3200026 304.728008,51.576 303.128,51.576 Z M326.264,51.576 C324.087989,51.576 322.120009,51.0560052 320.36,50.016 C318.599991,48.9759948 317.232005,47.5360092 316.256,45.696 C315.279995,43.8559908 314.792,41.7840115 314.792,39.48 C314.792,37.1759885 315.279995,35.1040092 316.256,33.264 C317.232005,31.4239908 318.599991,29.9840052 320.36,28.944 C322.120009,27.9039948 324.087989,27.384 326.264,27.384 C328.440011,27.384 330.391991,27.9039948 332.12,28.944 C333.848009,29.9840052 335.199995,31.4239908 336.176,33.264 C337.152005,35.1040092 337.64,37.1759885 337.64,39.48 C337.64,41.7840115 337.152005,43.8559908 336.176,45.696 C335.199995,47.5360092 333.848009,48.9759948 332.12,50.016 C330.391991,51.0560052 328.440011,51.576 326.264,51.576 Z M326.264,48.696 C327.928008,48.696 329.391994,48.2880041 330.656,47.472 C331.920006,46.6559959 332.895997,45.552007 333.584,44.16 C334.272003,42.767993 334.616,41.2080086 334.616,39.48 C334.616,37.7519914 334.272003,36.184007 333.584,34.776 C332.895997,33.367993 331.920006,32.264004 330.656,31.464 C329.391994,30.663996 327.928008,30.264 326.264,30.264 C324.567992,30.264 323.080006,30.663996 321.8,31.464 C320.519994,32.264004 319.528004,33.367993 318.824,34.776 C318.119996,36.184007 317.768,37.7519914 317.768,39.48 C317.768,41.2080086 318.119996,42.767993 318.824,44.16 C319.528004,45.552007 320.519994,46.6559959 321.8,47.472 C323.080006,48.2880041 324.567992,48.696 326.264,48.696 Z M343.544,51 C343.383999,51 343.248001,50.9440006 343.136,50.832 C343.023999,50.7199994 342.968,50.5840008 342.968,50.424 L342.968,29.016 C342.968,28.6959984 343.111999,28.4880005 343.4,28.392 L345.272,27.672 C345.336,27.6399998 345.416,27.624 345.512,27.624 C345.768001,27.624 345.896,27.7999982 345.896,28.152 L345.896,31.416 C346.632004,30.1679938 347.663993,29.1840036 348.992,28.464 C350.320007,27.7439964 351.783992,27.384 353.384,27.384 C356.104014,27.384 358.271992,28.2479914 359.888,29.976 C361.504008,31.7040086 362.312,34.1039846 362.312,37.176 L362.312,50.424 C362.312,50.8080019 362.136002,51 361.784,51 L359.96,51 C359.799999,51 359.664001,50.9440006 359.552,50.832 C359.439999,50.7199994 359.384,50.5840008 359.384,50.424 L359.384,37.416 C359.384,35.1119885 358.816006,33.3440062 357.68,32.112 C356.543994,30.8799938 354.920011,30.264 352.808,30.264 C350.79199,30.264 349.136006,30.9119935 347.84,32.208 C346.543994,33.5040065 345.896,35.2399891 345.896,37.416 L345.896,50.424 C345.896,50.8080019 345.720002,51 345.368,51 L343.544,51 Z M375.848,51.576 C374.151992,51.576 372.520008,51.2560032 370.952,50.616 C369.383992,49.9759968 368.120005,49.0480061 367.16,47.832 C367.064,47.7359995 367.016,47.6240006 367.016,47.496 C367.016,47.3999995 367.079999,47.256001 367.208,47.064 L368.216,45.72 C368.376001,45.5599992 368.519999,45.48 368.648,45.48 C368.712,45.48 368.839999,45.5439994 369.032,45.672 C370.95201,47.7200102 373.255987,48.744 375.944,48.744 C377.544008,48.744 378.815995,48.4000034 379.76,47.712 C380.704005,47.0239966 381.176,46.1040058 381.176,44.952 C381.176,43.7999942 380.728004,42.9120031 379.832,42.288 C378.935996,41.6639969 377.544009,41.1120024 375.656,40.632 C373.159988,40.023997 371.248007,39.2560046 369.92,38.328 C368.591993,37.3999954 367.928,35.9760096 367.928,34.056 C367.928,32.8399939 368.247997,31.7200051 368.888,30.696 C369.528003,29.6719949 370.455994,28.864003 371.672,28.272 C372.888006,27.679997 374.295992,27.384 375.896,27.384 C377.272007,27.384 378.575994,27.6079978 379.808,28.056 C381.040006,28.5040022 382.087996,29.1119962 382.952,29.88 C383.080001,29.9760005 383.144,30.1039992 383.144,30.264 C383.144,30.3920006 383.080001,30.5199994 382.952,30.648 L381.896,31.992 C381.639999,32.2800014 381.384001,32.3120011 381.128,32.088 C380.423996,31.5119971 379.616005,31.0560017 378.704,30.72 C377.791995,30.3839983 376.856005,30.216 375.896,30.216 C374.423993,30.216 373.224005,30.5599966 372.296,31.248 C371.367995,31.9360034 370.904,32.8079947 370.904,33.864 C370.904,34.9200053 371.351996,35.743997 372.248,36.336 C373.144004,36.928003 374.59999,37.4639976 376.616,37.944 C379.080012,38.552003 380.943994,39.3679949 382.208,40.392 C383.472006,41.4160051 384.104,42.8559907 384.104,44.712 C384.104,47.0160115 383.296008,48.7359943 381.68,49.872 C380.063992,51.0080057 378.120011,51.576 375.848,51.576 Z M399.8,51.576 C397.623989,51.576 395.656009,51.0560052 393.896,50.016 C392.135991,48.9759948 390.768005,47.5360092 389.792,45.696 C388.815995,43.8559908 388.328,41.7840115 388.328,39.48 C388.328,37.1759885 388.815995,35.1040092 389.792,33.264 C390.768005,31.4239908 392.135991,29.9840052 393.896,28.944 C395.656009,27.9039948 397.623989,27.384 399.8,27.384 C401.976011,27.384 403.927991,27.9039948 405.656,28.944 C407.384009,29.9840052 408.735995,31.4239908 409.712,33.264 C410.688005,35.1040092 411.176,37.1759885 411.176,39.48 C411.176,41.7840115 410.688005,43.8559908 409.712,45.696 C408.735995,47.5360092 407.384009,48.9759948 405.656,50.016 C403.927991,51.0560052 401.976011,51.576 399.8,51.576 Z M399.8,48.696 C401.464008,48.696 402.927994,48.2880041 404.192,47.472 C405.456006,46.6559959 406.431997,45.552007 407.12,44.16 C407.808003,42.767993 408.152,41.2080086 408.152,39.48 C408.152,37.7519914 407.808003,36.184007 407.12,34.776 C406.431997,33.367993 405.456006,32.264004 404.192,31.464 C402.927994,30.663996 401.464008,30.264 399.8,30.264 C398.103992,30.264 396.616006,30.663996 395.336,31.464 C394.055994,32.264004 393.064004,33.367993 392.36,34.776 C391.655996,36.184007 391.304,37.7519914 391.304,39.48 C391.304,41.2080086 391.655996,42.767993 392.36,44.16 C393.064004,45.552007 394.055994,46.6559959 395.336,47.472 C396.616006,48.2880041 398.103992,48.696 399.8,48.696 Z M417.128,51 C416.775998,51 416.6,50.8080019 416.6,50.424 L416.6,18.408 C416.6,18.0879984 416.743999,17.8800005 417.032,17.784 L418.904,17.064 L419.096,17.016 C419.224001,17.016 419.328,17.0639995 419.408,17.16 C419.488,17.2560005 419.528,17.3839992 419.528,17.544 L419.528,50.424 C419.528,50.5840008 419.472001,50.7199994 419.36,50.832 C419.247999,50.9440006 419.112001,51 418.952,51 L417.128,51 Z M436.52,27.384 C438.60001,27.384 440.439992,27.887995 442.04,28.896 C443.640008,29.904005 444.871996,31.2399917 445.736,32.904 C446.600004,34.5680083 447.032,36.3759902 447.032,38.328 L447.032,39.624 C447.032,39.9760018 446.840002,40.152 446.456,40.152 L427.88,40.152 C427.976,41.6880077 428.391996,43.1039935 429.128,44.4 C429.864004,45.6960065 430.895993,46.7359961 432.224,47.52 C433.552007,48.3040039 435.127991,48.696 436.952,48.696 C438.328007,48.696 439.679993,48.4320026 441.008,47.904 C442.336007,47.3759974 443.543995,46.6320048 444.632,45.672 C444.824001,45.5439994 444.952,45.48 445.016,45.48 C445.176001,45.48 445.304,45.5599992 445.4,45.72 L446.408,47.112 C446.504,47.2080005 446.552,47.3359992 446.552,47.496 C446.552,47.6240006 446.488001,47.7519994 446.36,47.88 C445.143994,49.0640059 443.704008,49.9759968 442.04,50.616 C440.375992,51.2560032 438.648009,51.576 436.856,51.576 C434.423988,51.576 432.304009,51.0640051 430.496,50.04 C428.687991,49.0159949 427.304005,47.600009 426.344,45.792 C425.383995,43.983991 424.904,41.9280115 424.904,39.624 C424.904,37.1599877 425.423995,35.0000093 426.464,33.144 C427.504005,31.2879907 428.911991,29.864005 430.688,28.872 C432.464009,27.879995 434.407989,27.384 436.52,27.384 Z M443.96,37.416 C443.799999,35.3359896 443.064007,33.6240067 441.752,32.28 C440.439993,30.9359933 438.680011,30.264 436.472,30.264 C434.167988,30.264 432.288007,30.9279934 430.832,32.256 C429.375993,33.5840066 428.456002,35.3039894 428.072,37.416 L443.96,37.416 Z" id="web-console" fill="#FCFCFD"></path>
            <path d="M70.82,20.24 C69.8733286,20.24 69.0233371,20.0233355 68.27,19.59 C67.5166629,19.1566645 66.9300021,18.5566705 66.51,17.79 C66.0899979,17.0233295 65.88,16.1600048 65.88,15.2 C65.88,14.2399952 66.0899979,13.3766705 66.51,12.61 C66.9300021,11.8433295 67.5166629,11.2433355 68.27,10.81 C69.0233371,10.3766645 69.8733286,10.16 70.82,10.16 C71.7666714,10.16 72.6133296,10.3766645 73.36,10.81 C74.1066704,11.2433355 74.6899979,11.8433295 75.11,12.61 C75.5300021,13.3766705 75.74,14.2399952 75.74,15.2 C75.74,16.1600048 75.5300021,17.0233295 75.11,17.79 C74.6899979,18.5566705 74.1066704,19.1566645 73.36,19.59 C72.6133296,20.0233355 71.7666714,20.24 70.82,20.24 Z M70.82,18.56 C71.7800048,18.56 72.5466638,18.2400032 73.12,17.6 C73.6933362,16.9599968 73.98,16.1600048 73.98,15.2 C73.98,14.2399952 73.6933362,13.4400032 73.12,12.8 C72.5466638,12.1599968 71.7800048,11.84 70.82,11.84 C69.8466618,11.84 69.0733362,12.1599968 68.5,12.8 C67.9266638,13.4400032 67.64,14.2399952 67.64,15.2 C67.64,16.1600048 67.9266638,16.9599968 68.5,17.6 C69.0733362,18.2400032 69.8466618,18.56 70.82,18.56 Z M78.12,20 C78.0266662,20 77.9533336,19.9733336 77.9,19.92 C77.8466664,19.8666664 77.82,19.7933338 77.82,19.7 L77.82,11.08 C77.82,10.9066658 77.8999992,10.7933336 78.06,10.74 L79.2,10.32 C79.2266668,10.3066666 79.2666664,10.3 79.32,10.3 C79.4666674,10.3 79.54,10.3866658 79.54,10.56 L79.54,11.58 C79.8600016,11.113331 80.2599976,10.7600012 80.74,10.52 C81.2200024,10.2799988 81.7333306,10.16 82.28,10.16 C82.8400028,10.16 83.3599976,10.2966653 83.84,10.57 C84.3200024,10.8433347 84.7066652,11.2533306 85,11.8 C85.3733352,11.2133304 85.8299973,10.7933346 86.37,10.54 C86.9100027,10.2866654 87.4733304,10.16 88.06,10.16 C89.1533388,10.16 90.0066636,10.4999966 90.62,11.18 C91.2333364,11.8600034 91.54,12.8866598 91.54,14.26 L91.54,19.7 C91.54,19.7933338 91.5133336,19.8666664 91.46,19.92 C91.4066664,19.9733336 91.3333338,20 91.24,20 L90.12,20 C90.0266662,20 89.9533336,19.9733336 89.9,19.92 C89.8466664,19.8666664 89.82,19.7933338 89.82,19.7 L89.82,14.48 C89.82,13.6399958 89.6333352,12.9933356 89.26,12.54 C88.8866648,12.0866644 88.3600034,11.86 87.68,11.86 C86.9999966,11.86 86.4733352,12.0866644 86.1,12.54 C85.7266648,12.9933356 85.54,13.6399958 85.54,14.48 L85.54,19.7 C85.54,19.7933338 85.5133336,19.8666664 85.46,19.92 C85.4066664,19.9733336 85.3333338,20 85.24,20 L84.12,20 C84.0266662,20 83.9533336,19.9733336 83.9,19.92 C83.8466664,19.8666664 83.82,19.7933338 83.82,19.7 L83.82,14.48 C83.82,13.6399958 83.6333352,12.9933356 83.26,12.54 C82.8866648,12.0866644 82.3600034,11.86 81.68,11.86 C80.9999966,11.86 80.4733352,12.0866644 80.1,12.54 C79.7266648,12.9933356 79.54,13.6399958 79.54,14.48 L79.54,19.7 C79.54,19.7933338 79.5133336,19.8666664 79.46,19.92 C79.4066664,19.9733336 79.3333338,20 79.24,20 L78.12,20 Z M94.08,20 C93.9866662,20 93.9133336,19.9733336 93.86,19.92 C93.8066664,19.8666664 93.78,19.7933338 93.78,19.7 L93.78,11.08 C93.78,10.9066658 93.8599992,10.7933336 94.02,10.74 L95.16,10.32 C95.1866668,10.3066666 95.2266664,10.3 95.28,10.3 C95.4266674,10.3 95.5,10.3866658 95.5,10.56 L95.5,11.58 C95.8466684,11.0733308 96.2766641,10.7100011 96.79,10.49 C97.3033359,10.2699989 97.8466638,10.16 98.42,10.16 C99.153337,10.16 99.8133304,10.3233317 100.4,10.65 C100.98667,10.9766683 101.449998,11.4633301 101.79,12.11 C102.130002,12.7566699 102.3,13.5399954 102.3,14.46 L102.3,19.7 C102.3,19.7933338 102.273334,19.8666664 102.22,19.92 C102.166666,19.9733336 102.093334,20 102,20 L100.88,20 C100.786666,20 100.713334,19.9733336 100.66,19.92 C100.606666,19.8666664 100.58,19.7933338 100.58,19.7 L100.58,14.52 C100.58,13.6799958 100.356669,13.026669 99.91,12.56 C99.4633311,12.093331 98.8600038,11.86 98.1,11.86 C97.3266628,11.86 96.7000024,12.0966643 96.22,12.57 C95.7399976,13.0433357 95.5,13.6933292 95.5,14.52 L95.5,19.7 C95.5,19.7933338 95.4733336,19.8666664 95.42,19.92 C95.3666664,19.9733336 95.2933338,20 95.2,20 L94.08,20 Z M104.88,9.3 C104.853333,9.3133334 104.813334,9.32 104.76,9.32 C104.613333,9.32 104.54,9.2333342 104.54,9.06 L104.54,7.64 C104.54,7.4666658 104.619999,7.3533336 104.78,7.3 L106.04,6.82 C106.066667,6.8066666 106.106666,6.8 106.16,6.8 C106.306667,6.8 106.38,6.8866658 106.38,7.06 L106.38,8.54 C106.38,8.7000008 106.300001,8.813333 106.14,8.88 L104.88,9.3 Z M104.9,20 C104.806666,20 104.733334,19.9733336 104.68,19.92 C104.626666,19.8666664 104.6,19.7933338 104.6,19.7 L104.6,11.08 C104.6,10.9066658 104.679999,10.7933336 104.84,10.74 L105.98,10.32 C106.006667,10.3066666 106.046666,10.3 106.1,10.3 C106.246667,10.3 106.32,10.3866658 106.32,10.56 L106.32,19.7 C106.32,19.7933338 106.293334,19.8666664 106.24,19.92 C106.186666,19.9733336 106.113334,20 106.02,20 L104.9,20 Z M113.26,20.24 C112.273328,20.24 111.420004,20.0133356 110.7,19.56 C109.979996,19.1066644 109.426669,18.4933372 109.04,17.72 C108.653331,16.9466628 108.46,16.1000046 108.46,15.18 C108.46,14.1933284 108.683331,13.3166705 109.13,12.55 C109.576669,11.7833295 110.17333,11.1933354 110.92,10.78 C111.66667,10.3666646 112.479996,10.16 113.36,10.16 C114.02667,10.16 114.64333,10.2799988 115.21,10.52 C115.776669,10.7600012 116.213332,11.0866646 116.52,11.5 L116.52,11.08 C116.52,10.9066658 116.599999,10.7933336 116.76,10.74 L117.9,10.32 C117.98,10.2933332 118.026667,10.28 118.04,10.28 C118.173334,10.28 118.24,10.3666658 118.24,10.54 L118.24,19.7 C118.24,19.7933338 118.213334,19.8666664 118.16,19.92 C118.106666,19.9733336 118.033334,20 117.94,20 L116.82,20 C116.726666,20 116.653334,19.9733336 116.6,19.92 C116.546666,19.8666664 116.52,19.7933338 116.52,19.7 L116.52,18.92 C116.226665,19.2800018 115.77667,19.5899987 115.17,19.85 C114.56333,20.1100013 113.92667,20.24 113.26,20.24 Z M113.38,18.54 C114.313338,18.54 115.07333,18.2466696 115.66,17.66 C116.24667,17.0733304 116.54,16.246672 116.54,15.18 C116.54,14.113328 116.24667,13.2900029 115.66,12.71 C115.07333,12.1299971 114.313338,11.84 113.38,11.84 C112.486662,11.84 111.73667,12.1333304 111.13,12.72 C110.52333,13.3066696 110.22,14.1266614 110.22,15.18 C110.22,16.2333386 110.52333,17.0566637 111.13,17.65 C111.73667,18.2433363 112.486662,18.54 113.38,18.54 Z" id="omnia" fill="#FCFCFD"></path>
            <g id="Logo" transform="translate(8.000000, 5.000000)" stroke="#FCFCFD" stroke-width="3" stroke-linecap="round" stroke-linejoin="round">
                <path d="M16.6967678,21.0982243 C16.4429645,17.2306673 17.7173689,11.8543764 20.3914142,7.63104955 C24.0319211,1.88131521 29.8742606,-1.5 37.9032258,-1.5 L39.4032258,-1.5 L39.4032258,0 C39.4032258,15.5498862 30.7851655,23.1267338 18.119199,22.4981563 L16.7842891,22.4319083 L16.6967678,21.0982243 Z" id="leaf"></path>
                <path d="M28.8064516,9 C23.7526882,13 20.2150538,17 18.1935484,21 C14.1505376,27 17.688172,39 28.8064516,57" id="stem"></path>
                <path d="M21.2258065,42 C29.8172043,48 38.4086022,50.125 47,48.375" id="root-1"></path>
                <path d="M24.2580645,49.5 C18.1935484,54.5 12.1290323,56 6.06451613,54" id="root-2"></path>
                <path d="M18.1935484,36 C16.6774194,42 12.1290323,48 0,49.5" id="root-3"></path>
            </g>
        </g>
    </g>
</svg>
