<?xml version="1.0" standalone="no"?>
<!DOCTYPE svg PUBLIC "-//W3C//DTD SVG 20010904//EN"
 "http://www.w3.org/TR/2001/REC-SVG-20010904/DTD/svg10.dtd">
<svg version="1.0" xmlns="http://www.w3.org/2000/svg"
 width="700.000000pt" height="700.000000pt" viewBox="0 0 700.000000 700.000000"
 preserveAspectRatio="xMidYMid meet">
<metadata>
Created by potrace 1.14, written by Peter Selinger 2001-2017
</metadata>
<g transform="translate(0.000000,700.000000) scale(0.100000,-0.100000)"
fill="#000000" stroke="none">
<path d="M4677 6414 c-1 -1 -38 -4 -82 -8 -207 -15 -456 -74 -630 -149 -434
-187 -785 -546 -985 -1007 -18 -41 -38 -88 -45 -105 -28 -63 -86 -254 -110
-361 -43 -193 -53 -288 -53 -486 1 -114 -3 -197 -10 -215 -17 -42 -50 -163
-57 -208 -4 -22 -8 -119 -10 -215 -4 -183 6 -289 44 -475 19 -91 33 -148 87
-347 l18 -66 -37 -113 c-42 -128 -107 -260 -180 -368 -69 -102 -78 -113 -193
-227 -271 -267 -658 -438 -1182 -520 -122 -19 -148 -32 -156 -77 -6 -32 28
-77 59 -79 38 -2 141 13 289 43 676 137 1147 451 1394 929 27 52 57 116 67
143 l18 47 71 -172 c114 -274 152 -356 291 -634 l132 -260 -81 -61 c-266 -200
-541 -331 -808 -385 -114 -22 -351 -33 -433 -19 -28 5 -75 12 -104 16 -30 4
-96 19 -147 34 -79 24 -97 26 -121 16 -40 -17 -54 -52 -38 -93 12 -28 23 -34
101 -58 97 -29 90 -27 159 -39 28 -5 52 -10 55 -10 100 -25 324 -25 490 -1
288 41 612 185 906 401 88 64 104 73 104 56 0 -27 374 -656 402 -675 39 -28
107 11 108 61 0 13 -48 103 -107 200 -156 261 -365 638 -486 880 -59 117 -107
214 -107 217 0 3 60 -31 132 -76 336 -206 720 -364 1068 -441 119 -27 147 -32
265 -47 158 -21 443 -29 555 -16 19 2 64 7 100 11 84 8 102 11 180 24 132 24
158 42 146 106 -10 53 -53 63 -166 40 -176 -36 -491 -50 -695 -31 -527 47
-1036 244 -1577 607 -48 33 -94 59 -102 59 -30 0 -243 561 -291 767 -76 324
-90 426 -88 633 1 134 24 271 62 370 l21 55 152 0 c138 1 250 7 318 19 14 3
43 7 65 11 225 33 491 138 690 270 109 73 127 88 240 200 279 276 467 684 535
1160 6 44 13 90 15 101 10 61 19 237 19 376 1 201 8 193 -154 193 -67 1 -122
0 -123 -1z m129 -301 c-6 -162 -8 -189 -27 -328 -15 -120 -67 -337 -106 -450
-55 -158 -167 -377 -245 -480 -148 -196 -348 -360 -558 -458 -121 -57 -252
-102 -350 -121 -146 -28 -189 -35 -285 -41 -126 -9 -235 -11 -235 -4 0 13 128
220 185 298 167 233 450 525 715 741 117 95 133 128 85 175 -45 46 -60 38
-229 -104 -191 -162 -413 -381 -536 -531 -25 -30 -49 -60 -55 -66 -26 -30 -46
-56 -111 -149 -39 -55 -83 -121 -98 -147 -34 -58 -44 -66 -40 -30 2 15 6 56
10 92 3 36 8 74 10 85 2 11 7 36 10 55 31 182 110 421 199 605 243 502 630
825 1145 955 75 19 91 22 210 40 80 12 111 14 224 18 l89 2 -7 -157z"/>
</g>
</svg>
