<svg width="49" height="56" viewBox="0 0 49 56" fill="none" xmlns="http://www.w3.org/2000/svg">
  <path fill-rule="evenodd" clip-rule="evenodd" d="M12.501 31.5324C12.3404 29.0579 13.156 25.5799 14.8618 22.8569C17.1749 19.1644 20.8748 17 26 17H26.5V17.5C26.5 27.5701 21.0593 32.4049 12.9749 31.9994L12.5299 31.977L12.501 31.5324Z" stroke="#FF1243" stroke-linecap="round" stroke-linejoin="round"/>
  <path d="M20 23.5C16.6667 26.1667 14.3333 28.8333 13 31.5C10.3333 35.5 12.6667 43.5 20 55.5" stroke="#FF1243" stroke-linecap="round" stroke-linejoin="round"/>
  <path d="M15 45.5C20.6667 49.5 26.3333 50.9167 32 49.75" stroke="#FF1243" stroke-linecap="round" stroke-linejoin="round"/>
  <path d="M17 50.5C13 53.8333 9 54.8333 5 53.5" stroke="#FF1243" stroke-linecap="round" stroke-linejoin="round"/>
  <path d="M13 41.5C12 45.5 9 49.5 1 50.5" stroke="#FF1243" stroke-linecap="round" stroke-linejoin="round"/>
  <path d="M40.9685 15.5904C34.1345 4.95912 31.9058 1.99225 28.8026 1.69081C25.6467 1.38432 23.2375 3.08665 23.2375 3.08665C14.867 8.33725 11.0717 14.4229 10.1798 16.0095C12.9876 15.3073 16.0234 15.9825 21.8678 16.9706C30.3716 18.4084 35.1435 21.7176 35.1435 21.7176C35.2651 21.7872 35.3741 21.8587 35.4752 21.932C35.4858 17.7658 34.455 15.8667 32.5256 12.9275C34.5736 15.6981 37.7621 17.2779 38.9402 17.9512C39.2817 16.9129 40.0219 16.0724 40.9685 15.5904Z" fill="#DF0020"/>
  <path d="M35.4752 21.932C35.3741 21.8586 35.2651 21.7871 35.1435 21.7175C35.1435 21.7175 30.3716 18.4083 21.8678 16.9705C16.0234 15.9824 12.9876 15.3073 10.1798 16.0094C10.1184 16.0247 10.057 16.0396 9.99562 16.0565C8.7584 16.3937 7.75201 17.0658 7.57026 18.3585C7.42302 19.4048 7.4214 20.5025 7.4214 20.5025C7.4214 20.5025 7.07812 22.0287 8.85113 21.9688C10.6241 21.9091 28.368 22.7971 33.1146 26.8114C33.4796 27.0903 35.0349 27.5068 35.5325 26.2412C36.0034 25.044 37.2543 23.218 35.4752 21.932Z" fill="url(#paint0_linear_1706_62589)"/>
  <path d="M43.1673 15.1587C42.3788 15.0909 41.6254 15.2558 40.9685 15.5904C40.0219 16.0724 39.2817 16.9129 38.9401 17.9511C38.8426 18.2468 38.774 18.5564 38.7461 18.8803C38.553 21.1287 40.2193 23.1083 42.4677 23.3014C44.7162 23.4946 46.6958 21.8283 46.889 19.5799C47.0822 17.3313 45.4158 15.3519 43.1673 15.1587Z" fill="url(#paint1_linear_1706_62589)"/>
  <defs>
    <linearGradient id="paint0_linear_1706_62589" x1="20.799" y1="14.4504" x2="23.7352" y2="35.1087" gradientUnits="userSpaceOnUse">
      <stop stop-color="white"/>
      <stop offset="0.9509" stop-color="#919191"/>
    </linearGradient>
    <linearGradient id="paint1_linear_1706_62589" x1="40.7626" y1="15.6836" x2="58.262" y2="45.8846" gradientUnits="userSpaceOnUse">
      <stop stop-color="white"/>
      <stop offset="0.0226" stop-color="#FAFAFA"/>
      <stop offset="0.2539" stop-color="#C8C8C8"/>
      <stop offset="0.4722" stop-color="#A1A1A1"/>
      <stop offset="0.6717" stop-color="#858585"/>
      <stop offset="0.8459" stop-color="#747474"/>
      <stop offset="0.9755" stop-color="#6E6E6E"/>
    </linearGradient>
  </defs>
</svg>
