<?xml version="1.0" encoding="utf-8"?>
<svg viewBox="0 0 33 52" xmlns="http://www.w3.org/2000/svg">
  <defs>
    <linearGradient id="g1" x1="22.5" y1="11.3" x2="22.5" y2="17.7" gradientUnits="userSpaceOnUse">
      <stop offset="0" stop-color="#4b4b4b"/>
      <stop offset="1" stop-color="#181818"/>
    </linearGradient>
    <linearGradient id="g2" x1="23.2" y1=".4" x2="22.4" y2="14.7" gradientUnits="userSpaceOnUse">
      <stop offset="0" stop-color="#4b4b4b"/>
      <stop offset="1" stop-color="#181818"/>
    </linearGradient>
    <linearGradient id="g3" x1="22.4" y1="13.8" x2="22.2" y2="16.6" gradientUnits="userSpaceOnUse">
      <stop offset="0" stop-color="#590363"/>
      <stop offset="1" stop-color="#000000"/>
    </linearGradient>
    <style>
		.s0 { fill: none;stroke: #ff1243;stroke-linecap: round;stroke-linejoin: round } 
		.s1 { fill: url(#g1) } 
		.s2 { fill: url(#g2) } 
		.s3 { fill: none;stroke: url(#g3);stroke-linecap: round } 
	</style>
  </defs>
  <path id="Layer" class="s0" d="m12.5 27.5c-0.2-2.4 0.7-5.9 2.4-8.6 2.3-3.7 6-5.9 11.1-5.9h0.5v0.5c0 10.1-5.4 14.9-13.5 14.5h-0.5z"/>
  <path id="Layer" class="s0" d="m20 51.5q-11-18-7-24 2-4 7-8"/>
  <path id="Layer" class="s0" d="m15 41.5q8.5 6 17 4.3"/>
  <path id="Layer" class="s0" d="m17 46.5q-6 5-12 3"/>
  <path id="Layer" class="s0" d="m13 37.5c-1 4-4 8-12 9"/>
  <path id="Layer" class="s1" d="m22.5 17.7c-4.5 0-8.2-1.4-8.2-3.2 0-1.7 3.7-3.2 8.2-3.2 4.5 0 8.2 1.5 8.2 3.2 0 1.8-3.7 3.2-8.2 3.2z"/>
  <path id="Layer" class="s2" d="m25.8 1.2q0.8-1.3 0.8 0v12.5q0 1.2-0.7 1.2l-7.2-0.4q-0.7 0 0-1.3z"/>
  <path id="Layer" class="s3" d="M 20.854 14.286 C 20.854 14.286 19.141 13.913 18.927 13.813 L 18.791 14.082 C 18.791 14.682 26.091 14.905 26.091 14.305 L 25.243 14.46 L 23.435 14.569 L 20.854 14.286 Z"/>
</svg>