<svg width="39" height="41" viewBox="0 0 39 41" fill="none" xmlns="http://www.w3.org/2000/svg">
<path fill-rule="evenodd" clip-rule="evenodd" d="M12.4811 15.4111C12.3205 12.9366 13.1361 9.45862 14.8419 6.73558C17.155 3.04309 20.8549 0.8787 25.9801 0.8787H26.4801V1.3787C26.4801 11.4488 21.0394 16.2836 12.955 15.8781L12.51 15.8557L12.4811 15.4111Z" stroke="#FF1243" stroke-linecap="round" stroke-linejoin="round"/>
<path d="M19.9801 7.3787C16.6468 10.0454 14.3134 12.712 12.9801 15.3787C10.3134 19.3787 12.6468 27.3787 19.9801 39.3787" stroke="#FF1243" stroke-linecap="round" stroke-linejoin="round"/>
<path d="M14.9801 29.3787C20.6468 33.3787 26.3134 34.7954 31.9801 33.6287" stroke="#FF1243" stroke-linecap="round" stroke-linejoin="round"/>
<path d="M16.9801 34.3787C12.9801 37.712 8.9801 38.712 4.9801 37.3787" stroke="#FF1243" stroke-linecap="round" stroke-linejoin="round"/>
<path d="M12.9801 25.3787C11.9801 29.3787 8.9801 33.3787 0.980103 34.3787" stroke="#FF1243" stroke-linecap="round" stroke-linejoin="round"/>
<path d="M36.7575 32.5458C35.9587 38.0356 32.291 39.8399 28.7106 39.319C25.1303 38.798 22.1288 36.0234 22.9276 30.5335C23.7263 25.0436 28.0229 18.9175 31.6033 19.4384C35.1836 19.9594 37.5563 27.0559 36.7575 32.5458Z" fill="#2678C5"/>
<path d="M23.2838 28.82C23.4686 28.1241 23.5864 27.7538 23.8257 27.1335L25.6544 26.9582L27.0865 27.6079L28.7072 27.4024L30.3473 28.0824L32.1372 27.9015L33.6081 28.5568L35.1625 28.3417L36.8689 29.0313C36.9232 29.4871 36.927 29.8685 36.9078 30.8023L35.3432 30.1333L33.3566 30.2856L31.8857 29.6302L30.0958 29.8111L28.4282 29.1272L26.6898 29.3156L24.9707 28.6241L23.2838 28.82Z" fill="#F0FF45"/>
<path d="M22.8926 33.6177C22.8046 32.934 22.7846 32.5456 22.8065 31.8399L24.5306 31.6494L26.2302 32.338L27.988 32.1525L29.6539 32.8362L31.4455 32.6555L32.9088 33.3098L34.8523 33.1512L36.5013 33.8325C36.3312 34.5085 36.1982 34.8755 35.9121 35.5121L34.6008 34.88L32.6572 35.0385L31.194 34.3843L29.4024 34.5649L27.7365 33.8812L25.9449 34.0619L24.279 33.3781L22.8926 33.6177Z" fill="#F0FF45"/>
<path d="M25.2077 24.2452C25.601 23.6079 25.8333 23.2546 26.2856 22.6367L27.6427 22.3928L28.6599 22.9822L29.8036 22.7073L31.0341 23.3276L32.3968 23.0846L33.8243 23.7336L34.9899 23.4619L35.7827 24.0186C36.0289 24.6802 36.1571 25.0856 36.3611 25.8681L34.7383 25.1906L33.5727 25.4623L32.1452 24.8133L30.7844 25.0566L29.5521 24.436L27.996 24.6509L26.5268 23.9958L25.2077 24.2452Z" fill="#F0FF45"/>
<circle cx="27.2593" cy="26.013" r="0.437818" transform="rotate(8.27846 27.2593 26.013)" fill="#FE5353"/>
<circle cx="30.0184" cy="21.118" r="0.437818" transform="rotate(8.27846 30.0184 21.118)" fill="#00EB17"/>
<circle cx="32.647" cy="21.5004" r="0.437818" transform="rotate(8.27846 32.647 21.5004)" fill="#00EB17"/>
<circle cx="24.6671" cy="30.3464" r="0.437818" transform="rotate(8.27846 24.6671 30.3464)" fill="#CC61FF"/>
<circle cx="25.6925" cy="35.7749" r="0.437818" transform="rotate(8.27846 25.6925 35.7749)" fill="#FFC062"/>
<circle cx="32.6128" cy="36.7817" r="0.437818" transform="rotate(8.27846 32.6128 36.7817)" fill="#FFC062"/>
<circle cx="29.1527" cy="36.2783" r="0.437818" transform="rotate(8.27846 29.1527 36.2783)" fill="#FFC062"/>
<circle cx="35.1462" cy="31.8711" r="0.437818" transform="rotate(8.27846 35.1462 31.8711)" fill="#CC61FF"/>
<circle cx="31.6533" cy="31.3629" r="0.437818" transform="rotate(8.27846 31.6533 31.3629)" fill="#CC61FF"/>
<circle cx="28.1604" cy="30.8546" r="0.437818" transform="rotate(8.27846 28.1604 30.8546)" fill="#CC61FF"/>
<circle cx="33.8993" cy="26.9791" r="0.437818" transform="rotate(8.27846 33.8993 26.9791)" fill="#FE5353"/>
<circle cx="30.5792" cy="26.496" r="0.437818" transform="rotate(8.27846 30.5792 26.496)" fill="#FE5353"/>
<path d="M37.589 35.1762C37.7554 38.0776 35.9501 39.3952 33.9373 39.5106C31.9244 39.6261 29.9803 38.5236 29.8139 35.6222C29.6475 32.7207 31.3218 29.119 33.3346 29.0035C35.3475 28.8881 37.4226 32.2747 37.589 35.1762Z" fill="#FF7474"/>
<path d="M29.8203 34.7051C29.8448 34.3284 29.8685 34.1258 29.9311 33.7821L30.9108 33.4967L31.7643 33.6769L32.627 33.3983L33.5975 33.5718L34.5554 33.2877L35.4308 33.4666L36.2562 33.1901L37.264 33.3615C37.3436 33.5895 37.3876 33.7847 37.4796 34.2658L36.5516 34.0898L35.4832 34.3803L34.6078 34.2013L33.65 34.4854L32.664 34.3128L31.7351 34.5953L30.7202 34.4243L29.8203 34.7051Z" fill="#F0FF45"/>
<path d="M30.1334 37.208C30.0103 36.8667 29.9567 36.6695 29.8912 36.3052L30.812 36.0232L31.8159 36.1948L32.7558 35.9117L33.7407 36.0844L34.6995 35.8002L35.5706 35.9794L36.6148 35.6904L37.5903 35.8636C37.5717 36.2285 37.5393 36.431 37.4529 36.7881L36.6672 36.604L35.623 36.8931L34.7519 36.7139L33.7932 36.9981L32.8082 36.8254L31.8494 37.1096L30.8644 36.9369L30.1334 37.208Z" fill="#F0FF45"/>
<path d="M30.3689 32.1528C30.5138 31.7838 30.6018 31.5778 30.7811 31.2125L31.4956 30.9423L32.1159 31.1359L32.7104 30.8727L33.4507 31.0594L34.1683 30.789L35.0193 30.9694L35.6261 30.7054L36.1203 30.9062C36.3274 31.2193 36.442 31.4136 36.6393 31.7931L35.6785 31.6191L35.0717 31.8831L34.2207 31.7027L33.5041 31.973L32.7628 31.7863L31.9365 32.0629L31.062 31.8839L30.3689 32.1528Z" fill="#F0FF45"/>
<ellipse cx="31.6836" cy="32.8403" rx="0.243975" ry="0.229357" transform="rotate(-3.28284 31.6836 32.8403)" fill="#4415FF"/>
<ellipse cx="32.6533" cy="30.0345" rx="0.243975" ry="0.229357" transform="rotate(-3.28284 32.6533 30.0345)" fill="#00EB17"/>
<ellipse cx="34.1311" cy="29.9497" rx="0.243975" ry="0.229357" transform="rotate(-3.28284 34.1311 29.9497)" fill="#00EB17"/>
<ellipse cx="30.7435" cy="35.3402" rx="0.243975" ry="0.229357" transform="rotate(-3.28284 30.7435 35.3402)" fill="#CC61FF"/>
<ellipse cx="31.8996" cy="38.0152" rx="0.243975" ry="0.229357" transform="rotate(-3.28284 31.8996 38.0152)" fill="#6DEEFF"/>
<ellipse cx="35.7901" cy="37.7921" rx="0.243975" ry="0.229357" transform="rotate(-3.28284 35.7901 37.7921)" fill="#6DEEFF"/>
<ellipse cx="33.8449" cy="37.9036" rx="0.243975" ry="0.229357" transform="rotate(-3.28284 33.8449 37.9036)" fill="#6DEEFF"/>
<ellipse cx="36.6348" cy="35.0023" rx="0.243975" ry="0.229357" transform="rotate(-3.28284 36.6348 35.0023)" fill="#CC61FF"/>
<ellipse cx="34.6711" cy="35.1149" rx="0.243975" ry="0.229357" transform="rotate(-3.28284 34.6711 35.1149)" fill="#CC61FF"/>
<ellipse cx="32.7074" cy="35.2276" rx="0.243975" ry="0.229357" transform="rotate(-3.28284 32.7074 35.2276)" fill="#CC61FF"/>
<ellipse cx="35.4166" cy="32.6262" rx="0.243975" ry="0.229357" transform="rotate(-3.28284 35.4166 32.6262)" fill="#4415FF"/>
<ellipse cx="33.5501" cy="32.7332" rx="0.243975" ry="0.229357" transform="rotate(-3.28284 33.5501 32.7332)" fill="#4415FF"/>
<path d="M26.7495 32.8703C26.3345 36.1179 24.1888 37.2203 22.0708 36.9497C19.9528 36.6791 18.1532 35.0726 18.5681 31.825C18.983 28.5774 21.4554 24.9183 23.5734 25.189C25.6914 25.4596 27.1644 29.6227 26.7495 32.8703Z" fill="#8EFF35"/>
<path d="M18.7607 30.8102C18.8626 30.3977 18.9283 30.178 19.0631 29.8095L20.1404 29.6873L20.9921 30.056L21.9463 29.9181L22.9211 30.3024L23.9754 30.1773L24.8501 30.5489L25.7651 30.406L26.7791 30.7954C26.8158 31.0637 26.822 31.2888 26.8202 31.84L25.8901 31.4613L24.7194 31.5716L23.8448 31.2L22.7904 31.3251L21.7994 30.9387L20.7756 31.0677L19.7541 30.6773L18.7607 30.8102Z" fill="#CF69FF"/>
<path d="M18.5792 33.6453C18.5202 33.2428 18.5044 33.0138 18.5101 32.5971L19.5255 32.467L20.5355 32.8559L21.5708 32.7283L22.5608 33.1147L23.6162 32.9897L24.4863 33.3607L25.6315 33.2472L26.6115 33.6322C26.5181 34.0329 26.4434 34.2508 26.2811 34.6294L25.5009 34.2698L24.3556 34.3833L23.4855 34.0123L22.4302 34.1373L21.4402 33.751L20.3848 33.876L19.3948 33.4897L18.5792 33.6453Z" fill="#CF69FF"/>
<path d="M19.8489 28.091C20.0745 27.7109 20.2079 27.5001 20.4685 27.1308L21.2668 26.973L21.873 27.3103L22.5451 27.1363L23.2775 27.4897L24.0791 27.3323L24.9281 27.7006L25.6131 27.5283L26.0866 27.8486C26.2387 28.2365 26.3186 28.4745 26.4469 28.934L25.4824 28.551L24.7974 28.7233L23.9484 28.355L23.1479 28.5125L22.4144 28.159L21.4984 28.3018L20.6248 27.9303L19.8489 28.091Z" fill="#CF69FF"/>
<circle cx="21.0777" cy="29.1131" r="0.258384" transform="rotate(7.2811 21.0777 29.1131)" fill="#FE5353"/>
<circle cx="22.6555" cy="26.1963" r="0.258384" transform="rotate(7.2811 22.6555 26.1963)" fill="#00B2EB"/>
<circle cx="24.2105" cy="26.395" r="0.258384" transform="rotate(7.2811 24.2105 26.395)" fill="#00B2EB"/>
<circle cx="19.5926" cy="31.6967" r="0.258384" transform="rotate(7.2811 19.5926 31.6967)" fill="#CC61FF"/>
<circle cx="20.2534" cy="34.8894" r="0.258384" transform="rotate(7.2811 20.2534 34.8894)" fill="#FFC062"/>
<circle cx="24.3473" cy="35.4124" r="0.258384" transform="rotate(7.2811 24.3473 35.4124)" fill="#FFC062"/>
<circle cx="22.3004" cy="35.1509" r="0.258384" transform="rotate(7.2811 22.3004 35.1509)" fill="#FFC062"/>
<circle cx="25.7918" cy="32.4887" r="0.258384" transform="rotate(7.2811 25.7918 32.4887)" fill="#CC61FF"/>
<circle cx="23.7255" cy="32.2247" r="0.258384" transform="rotate(7.2811 23.7255 32.2247)" fill="#CC61FF"/>
<circle cx="21.6592" cy="31.9607" r="0.258384" transform="rotate(7.2811 21.6592 31.9607)" fill="#CC61FF"/>
<circle cx="25.0057" cy="29.6149" r="0.258384" transform="rotate(7.2811 25.0057 29.6149)" fill="#FE5353"/>
<circle cx="23.0417" cy="29.364" r="0.258384" transform="rotate(7.2811 23.0417 29.364)" fill="#FE5353"/>
</svg>
